<?xml version="1.0" encoding="UTF-8"?>
<svg id="Layer_1" data-name="Layer 1" xmlns="http://www.w3.org/2000/svg" viewBox="0 0 565.16 184.72">
  <defs>
    <style>
      .cls-1 {
        fill: #ff8732;
      }

      .cls-2 {
        fill: #d62300;
      }
    </style>
  </defs>
  <g>
    <path class="cls-2" d="M279.73,0h-46.21c-6.43,0-12.6,2.56-17.15,7.11L126.1,97.39c-9.84,9.84-24.35,13.29-38.53,8.28-.35-.12-.69-.26-1.02-.41-24.8-11.33-28.62-41.68-11.44-58.86,14.06-14.06,36.93-14.06,50.99,0l6.88,6.88c5.19,5.19,13.61,5.19,18.81,0l15.64-15.64-16.29-16.29c-27.87-27.87-73.21-27.87-101.08,0-27.87,27.87-27.87,73.21,0,101.08,12.08,12.08,27.72,19.28,44.55,20.67h11.98c16.83-1.39,32.47-8.59,44.55-20.67l25.41-25.41h0c7.76,8.5,39.91,39.91,39.91,39.91,3.24,3.24,8.54,6.17,14.85,6.17h47.58l-69.38-69.38-1.76-1.75,1.88-1.87L279.73,0Z"/>
    <circle class="cls-2" cx="21.97" cy="162.75" r="21.97"/>
    <g>
      <path class="cls-2" d="M310.67,31.63h-10.27c-1.81,0-3.27,1.46-3.27,3.27V105.95c0,1.81,1.46,3.27,3.27,3.27h41.05c1.81,0,3.27-1.46,3.27-3.27v-8.41c0-1.81-1.46-3.27-3.27-3.27h-27.51V34.9c0-1.81-1.46-3.27-3.27-3.27Z"/>
      <path class="cls-2" d="M397.91,52.26c-4.82-2.72-10.28-4.08-16.37-4.08s-11.43,1.38-16.25,4.14c-4.82,2.76-8.63,6.47-11.43,11.12-2.8,4.66-4.2,9.91-4.2,15.75s1.4,11.27,4.2,16c2.8,4.74,6.61,8.49,11.43,11.24,4.82,2.76,10.23,4.14,16.25,4.14s11.57-1.38,16.43-4.14c4.86-2.76,8.69-6.53,11.49-11.31,2.8-4.78,4.2-10.09,4.2-15.94s-1.42-11.12-4.26-15.81c-2.84-4.7-6.67-8.4-11.49-11.12Zm-2.84,35.34c-1.28,2.39-3.09,4.28-5.44,5.68-2.35,1.4-5.05,2.1-8.09,2.1s-5.6-.7-7.91-2.1c-2.31-1.4-4.1-3.29-5.38-5.68-1.28-2.39-1.91-5.15-1.91-8.28s.64-5.89,1.91-8.28c1.28-2.39,3.07-4.26,5.38-5.62,2.3-1.36,4.94-2.04,7.91-2.04s5.7,.68,7.97,2.04c2.27,1.36,4.08,3.23,5.44,5.62,1.36,2.39,2.04,5.15,2.04,8.28s-.64,5.89-1.91,8.28Z"/>
      <path class="cls-2" d="M480.13,31.63h-9.65c-1.81,0-3.27,1.46-3.27,3.27v14.64h-18.33v-14.64c0-1.81-1.46-3.27-3.27-3.27h-9.65c-1.81,0-3.27,1.46-3.27,3.27v14.64h-10.69c-1.81,0-3.27,1.46-3.27,3.27v7.67c0,1.81,1.46,3.27,3.27,3.27h10.69v42.2c0,1.81,1.46,3.27,3.27,3.27h9.65c1.81,0,3.27-1.46,3.27-3.27V63.75h18.33v42.2c0,1.81,1.46,3.27,3.27,3.27h9.65c1.81,0,3.27-1.46,3.27-3.27V63.75h12.11c1.81,0,3.27-1.46,3.27-3.27v-7.67c0-1.81-1.46-3.27-3.27-3.27h-12.11v-14.64c0-1.81-1.46-3.27-3.27-3.27Z"/>
      <path class="cls-2" d="M560.89,63.38c-2.84-4.7-6.67-8.4-11.49-11.12-4.82-2.72-10.28-4.08-16.37-4.08s-11.43,1.38-16.25,4.14c-4.82,2.76-8.63,6.47-11.43,11.12-2.8,4.66-4.2,9.91-4.2,15.75s1.4,11.27,4.2,16c2.8,4.74,6.61,8.49,11.43,11.24,4.82,2.76,10.23,4.14,16.25,4.14s11.57-1.38,16.43-4.14c4.86-2.76,8.69-6.53,11.49-11.31,2.8-4.78,4.2-10.09,4.2-15.94s-1.42-11.12-4.26-15.81Zm-14.33,24.22c-1.28,2.39-3.09,4.28-5.44,5.68-2.35,1.4-5.05,2.1-8.09,2.1s-5.6-.7-7.91-2.1c-2.31-1.4-4.1-3.29-5.38-5.68-1.28-2.39-1.91-5.15-1.91-8.28s.64-5.89,1.91-8.28c1.28-2.39,3.07-4.26,5.38-5.62,2.3-1.36,4.94-2.04,7.91-2.04s5.7,.68,7.97,2.04c2.27,1.36,4.08,3.23,5.44,5.62,1.36,2.39,2.04,5.15,2.04,8.28s-.64,5.89-1.91,8.28Z"/>
    </g>
  </g>
  <path class="cls-1" d="M457.8,135.58c-13.71,0-27.41-3.15-41.03-9.46-1.66-.77-2.33-2.78-1.52-4.42l3.2-6.44c.79-1.6,2.71-2.24,4.33-1.49,23.53,10.84,46.5,10.84,70.02,0,1.62-.75,3.54-.11,4.33,1.49l3.2,6.44c.81,1.64,.14,3.65-1.52,4.42-13.62,6.31-27.33,9.46-41.03,9.46Z"/>
</svg>